<?xml version="1.0" encoding="UTF-8" standalone="no"?>
<!DOCTYPE svg PUBLIC "-//W3C//DTD SVG 1.1//EN" "http://www.w3.org/Graphics/SVG/1.1/DTD/svg11.dtd">
<svg width="100%" height="100%" viewBox="0 0 304 62" version="1.1" xmlns="http://www.w3.org/2000/svg" xmlns:xlink="http://www.w3.org/1999/xlink" xml:space="preserve" xmlns:serif="http://www.serif.com/" style="fill-rule:evenodd;clip-rule:evenodd;stroke-linejoin:round;stroke-miterlimit:2;">
    <g transform="matrix(1,0,0,1,-887.013,-170.355)">
        <path d="M890.325,195.987L890.325,170.787L901.233,170.787C903.489,170.787 905.433,171.153 907.065,171.885C908.697,172.617 909.957,173.667 910.845,175.035C911.733,176.403 912.177,178.035 912.177,179.931C912.177,181.803 911.733,183.417 910.845,184.773C909.957,186.129 908.697,187.167 907.065,187.887C905.433,188.607 903.489,188.967 901.233,188.967L893.565,188.967L896.157,186.411L896.157,195.987L890.325,195.987ZM906.345,195.987L900.045,186.843L906.273,186.843L912.645,195.987L906.345,195.987ZM896.157,187.059L893.565,184.323L900.909,184.323C902.709,184.323 904.053,183.933 904.941,183.153C905.829,182.373 906.273,181.299 906.273,179.931C906.273,178.539 905.829,177.459 904.941,176.691C904.053,175.923 902.709,175.539 900.909,175.539L893.565,175.539L896.157,172.767L896.157,187.059Z" style="fill:rgb(220,220,220);fill-rule:nonzero;"/>
        <path d="M913.473,195.987L924.705,170.787L930.465,170.787L941.733,195.987L935.613,195.987L926.397,173.739L928.701,173.739L919.449,195.987L913.473,195.987ZM919.089,190.587L920.637,186.159L933.597,186.159L935.181,190.587L919.089,190.587Z" style="fill:rgb(220,220,220);fill-rule:nonzero;"/>
        <path d="M944.361,195.987L944.361,170.787L955.809,170.787C958.545,170.787 960.957,171.309 963.045,172.353C965.133,173.397 966.765,174.855 967.941,176.727C969.117,178.599 969.705,180.819 969.705,183.387C969.705,185.931 969.117,188.145 967.941,190.029C966.765,191.913 965.133,193.377 963.045,194.421C960.957,195.465 958.545,195.987 955.809,195.987L944.361,195.987ZM950.193,191.199L955.521,191.199C957.201,191.199 958.659,190.881 959.895,190.245C961.131,189.609 962.091,188.703 962.775,187.527C963.459,186.351 963.801,184.971 963.801,183.387C963.801,181.779 963.459,180.393 962.775,179.229C962.091,178.065 961.131,177.165 959.895,176.529C958.659,175.893 957.201,175.575 955.521,175.575L950.193,175.575L950.193,191.199Z" style="fill:rgb(220,220,220);fill-rule:nonzero;"/>
        <rect x="974.097" y="170.787" width="5.832" height="25.2" style="fill:rgb(220,220,220);fill-rule:nonzero;"/>
        <path d="M998.145,196.419C996.153,196.419 994.311,196.095 992.619,195.447C990.927,194.799 989.463,193.887 988.227,192.711C986.991,191.535 986.031,190.155 985.347,188.571C984.663,186.987 984.321,185.259 984.321,183.387C984.321,181.515 984.663,179.787 985.347,178.203C986.031,176.619 986.997,175.239 988.245,174.063C989.493,172.887 990.957,171.975 992.637,171.327C994.317,170.679 996.141,170.355 998.109,170.355C1000.1,170.355 1001.93,170.679 1003.6,171.327C1005.27,171.975 1006.72,172.887 1007.96,174.063C1009.19,175.239 1010.16,176.613 1010.85,178.185C1011.55,179.757 1011.9,181.491 1011.9,183.387C1011.9,185.259 1011.55,186.993 1010.85,188.589C1010.16,190.185 1009.19,191.565 1007.96,192.729C1006.72,193.893 1005.27,194.799 1003.6,195.447C1001.93,196.095 1000.11,196.419 998.145,196.419ZM998.109,191.451C999.237,191.451 1000.27,191.259 1001.22,190.875C1002.17,190.491 1003,189.939 1003.73,189.219C1004.45,188.499 1005,187.647 1005.4,186.663C1005.8,185.679 1005.99,184.587 1005.99,183.387C1005.99,182.187 1005.8,181.095 1005.4,180.111C1005,179.127 1004.45,178.275 1003.74,177.555C1003.03,176.835 1002.2,176.283 1001.24,175.899C1000.28,175.515 999.237,175.323 998.109,175.323C996.981,175.323 995.943,175.515 994.995,175.899C994.047,176.283 993.213,176.835 992.493,177.555C991.773,178.275 991.215,179.127 990.819,180.111C990.423,181.095 990.225,182.187 990.225,183.387C990.225,184.563 990.423,185.649 990.819,186.645C991.215,187.641 991.767,188.499 992.475,189.219C993.183,189.939 994.017,190.491 994.977,190.875C995.937,191.259 996.981,191.451 998.109,191.451Z" style="fill:rgb(220,220,220);fill-rule:nonzero;"/>
        <path d="M1038.54,196.419C1036.59,196.419 1034.79,196.101 1033.12,195.465C1031.45,194.829 1030.01,193.923 1028.78,192.747C1027.56,191.571 1026.6,190.191 1025.92,188.607C1025.24,187.023 1024.89,185.283 1024.89,183.387C1024.89,181.491 1025.24,179.751 1025.92,178.167C1026.6,176.583 1027.56,175.203 1028.8,174.027C1030.04,172.851 1031.48,171.945 1033.14,171.309C1034.79,170.673 1036.61,170.355 1038.57,170.355C1040.76,170.355 1042.73,170.733 1044.5,171.489C1046.26,172.245 1047.74,173.355 1048.94,174.819L1045.2,178.275C1044.33,177.291 1043.37,176.553 1042.32,176.061C1041.26,175.569 1040.11,175.323 1038.86,175.323C1037.68,175.323 1036.61,175.515 1035.62,175.899C1034.64,176.283 1033.79,176.835 1033.07,177.555C1032.35,178.275 1031.79,179.127 1031.39,180.111C1031,181.095 1030.8,182.187 1030.8,183.387C1030.8,184.587 1031,185.679 1031.39,186.663C1031.79,187.647 1032.35,188.499 1033.07,189.219C1033.79,189.939 1034.64,190.491 1035.62,190.875C1036.61,191.259 1037.68,191.451 1038.86,191.451C1040.11,191.451 1041.26,191.205 1042.32,190.713C1043.37,190.221 1044.33,189.471 1045.2,188.463L1048.94,191.919C1047.74,193.383 1046.26,194.499 1044.5,195.267C1042.73,196.035 1040.75,196.419 1038.54,196.419Z" style="fill:rgb(220,220,220);fill-rule:nonzero;"/>
        <path d="M1064.57,196.419C1062.57,196.419 1060.73,196.095 1059.04,195.447C1057.35,194.799 1055.88,193.887 1054.65,192.711C1053.41,191.535 1052.45,190.155 1051.77,188.571C1051.08,186.987 1050.74,185.259 1050.74,183.387C1050.74,181.515 1051.08,179.787 1051.77,178.203C1052.45,176.619 1053.42,175.239 1054.66,174.063C1055.91,172.887 1057.38,171.975 1059.06,171.327C1060.74,170.679 1062.56,170.355 1064.53,170.355C1066.52,170.355 1068.35,170.679 1070.02,171.327C1071.69,171.975 1073.14,172.887 1074.38,174.063C1075.61,175.239 1076.58,176.613 1077.27,178.185C1077.97,179.757 1078.32,181.491 1078.32,183.387C1078.32,185.259 1077.97,186.993 1077.27,188.589C1076.58,190.185 1075.61,191.565 1074.38,192.729C1073.14,193.893 1071.69,194.799 1070.02,195.447C1068.35,196.095 1066.53,196.419 1064.57,196.419ZM1064.53,191.451C1065.66,191.451 1066.69,191.259 1067.64,190.875C1068.59,190.491 1069.42,189.939 1070.14,189.219C1070.87,188.499 1071.42,187.647 1071.82,186.663C1072.21,185.679 1072.41,184.587 1072.41,183.387C1072.41,182.187 1072.21,181.095 1071.82,180.111C1071.42,179.127 1070.87,178.275 1070.16,177.555C1069.45,176.835 1068.62,176.283 1067.66,175.899C1066.7,175.515 1065.66,175.323 1064.53,175.323C1063.4,175.323 1062.36,175.515 1061.41,175.899C1060.47,176.283 1059.63,176.835 1058.91,177.555C1058.19,178.275 1057.63,179.127 1057.24,180.111C1056.84,181.095 1056.64,182.187 1056.64,183.387C1056.64,184.563 1056.84,185.649 1057.24,186.645C1057.63,187.641 1058.19,188.499 1058.89,189.219C1059.6,189.939 1060.44,190.491 1061.4,190.875C1062.36,191.259 1063.4,191.451 1064.53,191.451Z" style="fill:rgb(220,220,220);fill-rule:nonzero;"/>
        <path d="M1082.71,195.987L1082.71,170.787L1093.62,170.787C1095.87,170.787 1097.82,171.153 1099.45,171.885C1101.08,172.617 1102.34,173.667 1103.23,175.035C1104.12,176.403 1104.56,178.035 1104.56,179.931C1104.56,181.803 1104.12,183.423 1103.23,184.791C1102.34,186.159 1101.08,187.209 1099.45,187.941C1097.82,188.673 1095.87,189.039 1093.62,189.039L1085.95,189.039L1088.54,186.411L1088.54,195.987L1082.71,195.987ZM1088.54,187.059L1085.95,184.287L1093.29,184.287C1095.09,184.287 1096.44,183.903 1097.33,183.135C1098.21,182.367 1098.66,181.299 1098.66,179.931C1098.66,178.539 1098.21,177.459 1097.33,176.691C1096.44,175.923 1095.09,175.539 1093.29,175.539L1085.95,175.539L1088.54,172.767L1088.54,187.059Z" style="fill:rgb(220,220,220);fill-rule:nonzero;"/>
        <rect x="1108.7" y="170.787" width="5.832" height="25.2" style="fill:rgb(220,220,220);fill-rule:nonzero;"/>
        <path d="M1120.51,195.987L1120.51,170.787L1126.34,170.787L1126.34,191.235L1138.98,191.235L1138.98,195.987L1120.51,195.987Z" style="fill:rgb(220,220,220);fill-rule:nonzero;"/>
        <path d="M1154.06,196.419C1152.07,196.419 1150.23,196.095 1148.54,195.447C1146.84,194.799 1145.38,193.887 1144.14,192.711C1142.91,191.535 1141.95,190.155 1141.26,188.571C1140.58,186.987 1140.24,185.259 1140.24,183.387C1140.24,181.515 1140.58,179.787 1141.26,178.203C1141.95,176.619 1142.91,175.239 1144.16,174.063C1145.41,172.887 1146.87,171.975 1148.55,171.327C1150.23,170.679 1152.06,170.355 1154.03,170.355C1156.02,170.355 1157.85,170.679 1159.52,171.327C1161.18,171.975 1162.63,172.887 1163.87,174.063C1165.11,175.239 1166.07,176.613 1166.77,178.185C1167.46,179.757 1167.81,181.491 1167.81,183.387C1167.81,185.259 1167.46,186.993 1166.77,188.589C1166.07,190.185 1165.11,191.565 1163.87,192.729C1162.63,193.893 1161.18,194.799 1159.52,195.447C1157.85,196.095 1156.03,196.419 1154.06,196.419ZM1154.03,191.451C1155.15,191.451 1156.19,191.259 1157.14,190.875C1158.09,190.491 1158.92,189.939 1159.64,189.219C1160.36,188.499 1160.92,187.647 1161.32,186.663C1161.71,185.679 1161.91,184.587 1161.91,183.387C1161.91,182.187 1161.71,181.095 1161.32,180.111C1160.92,179.127 1160.37,178.275 1159.66,177.555C1158.95,176.835 1158.12,176.283 1157.16,175.899C1156.2,175.515 1155.15,175.323 1154.03,175.323C1152.9,175.323 1151.86,175.515 1150.91,175.899C1149.96,176.283 1149.13,176.835 1148.41,177.555C1147.69,178.275 1147.13,179.127 1146.74,180.111C1146.34,181.095 1146.14,182.187 1146.14,183.387C1146.14,184.563 1146.34,185.649 1146.74,186.645C1147.13,187.641 1147.68,188.499 1148.39,189.219C1149.1,189.939 1149.93,190.491 1150.89,190.875C1151.85,191.259 1152.9,191.451 1154.03,191.451Z" style="fill:rgb(220,220,220);fill-rule:nonzero;"/>
        <path d="M1177.07,195.987L1177.07,175.539L1169,175.539L1169,170.787L1190.96,170.787L1190.96,175.539L1182.9,175.539L1182.9,195.987L1177.07,195.987Z" style="fill:rgb(220,220,220);fill-rule:nonzero;"/>
        <path d="M887.013,231.987L898.245,206.787L904.005,206.787L915.273,231.987L909.153,231.987L899.937,209.739L902.241,209.739L892.989,231.987L887.013,231.987ZM892.629,226.587L894.177,222.159L907.137,222.159L908.721,226.587L892.629,226.587Z" style="fill:rgb(209,11,12);fill-rule:nonzero;"/>
        <path d="M917.901,231.987L917.901,206.787L929.349,206.787C932.085,206.787 934.497,207.309 936.585,208.353C938.673,209.397 940.305,210.855 941.481,212.727C942.657,214.599 943.245,216.819 943.245,219.387C943.245,221.931 942.657,224.145 941.481,226.029C940.305,227.913 938.673,229.377 936.585,230.421C934.497,231.465 932.085,231.987 929.349,231.987L917.901,231.987ZM923.733,227.199L929.061,227.199C930.741,227.199 932.199,226.881 933.435,226.245C934.671,225.609 935.631,224.703 936.315,223.527C936.999,222.351 937.341,220.971 937.341,219.387C937.341,217.779 936.999,216.393 936.315,215.229C935.631,214.065 934.671,213.165 933.435,212.529C932.199,211.893 930.741,211.575 929.061,211.575L923.733,211.575L923.733,227.199Z" style="fill:rgb(209,11,12);fill-rule:nonzero;"/>
        <path d="M947.637,231.987L947.637,206.787L952.461,206.787L963.189,224.571L960.633,224.571L971.181,206.787L975.969,206.787L976.041,231.987L970.569,231.987L970.533,215.175L971.541,215.175L963.117,229.323L960.489,229.323L951.885,215.175L953.109,215.175L953.109,231.987L947.637,231.987Z" style="fill:rgb(209,11,12);fill-rule:nonzero;"/>
        <rect x="982.017" y="206.787" width="5.832" height="25.2" style="fill:rgb(209,11,12);fill-rule:nonzero;"/>
        <path d="M993.825,231.987L993.825,206.787L998.649,206.787L1013.52,224.931L1011.18,224.931L1011.18,206.787L1016.94,206.787L1016.94,231.987L1012.15,231.987L997.245,213.843L999.585,213.843L999.585,231.987L993.825,231.987Z" style="fill:rgb(209,11,12);fill-rule:nonzero;"/>
    </g>
    <g transform="matrix(0.479434,0,0,0.479434,177.411,61.632)">
        <path d="M0,-51.598L-23.804,-26.72L-28.44,-30.196C-34.233,-34.449 -42.214,-34.078 -47.414,-29.315C-50.083,-26.871 -51.714,-23.677 -52.129,-20.077C-52.148,-19.907 -52.165,-19.737 -52.18,-19.564L-52.218,-19.105L-42.497,-19.105L-60.912,0L-79.327,-19.105L-69.567,-19.105L-69.553,-19.513C-68.868,-37.505 -54.226,-51.598 -36.217,-51.598L0,-51.598Z" style="fill:rgb(209,11,12);fill-rule:nonzero;"/>
    </g>
    <g transform="matrix(0.479434,0,0,0.479434,191.531,52.4737)">
        <path d="M0,-13.394L-9.759,-13.394L-9.776,-12.984C-10.461,5.008 -25.104,19.102 -43.112,19.102L-79.329,19.102L-55.596,-5.704L-50.889,-2.303C-45.096,1.95 -37.115,1.58 -31.915,-3.182C-29.246,-5.627 -27.615,-8.822 -27.2,-12.422C-27.181,-12.592 -27.164,-12.762 -27.149,-12.932L-27.111,-13.394L-36.832,-13.394L-18.417,-32.496L0,-13.394Z" style="fill:white;fill-rule:nonzero;"/>
    </g>
</svg>
